# xmcd
#
# Track frame offsets: 
#        150
#        25360
#        53345
#        78400
#        90412
#        106022
#        147682
#
# Disc length: 2371 seconds
#
# Revision: 3
# Processed by: cddbd v1.5.2PL0 Copyright (c) Steve Scherf et al.
# Submitted via: ExactAudioCopy v0.99pb4
#
DISCID=4d094107
DTITLE=Stone The Crows - Ontinuous Performance (1997 Repertoire)
DYEAR=1972
DGENRE=Blues
TTITLE0=On The Highway
TTITLE1=One More Chance
TTITLE2=Penicillin Blues
TTITLE3=King Tut
TTITLE4=Good Time Girl
TTITLE5=Niagara
TTITLE6=Sunset Cowboy
EXTD=One of Britain´s most appealing blues rock bands...\n...managed b
EXTD=y Peter Grant of Led Zeppelin fame - they were making a break thro
EXTD=ugh in America...\n...they left Scotland in 1969...\n..."Ontinuou
EXTD=s Perfomance" would prove their last album...\n...on May 3, 1972 
EXTD=the lead guitarist died after beeing electrocuted on stage...\npr
EXTD=oduced 1972 - copyright 1997
EXTT0=
EXTT1=
EXTT2=
EXTT3=
EXTT4=
EXTT5=
EXTT6=
PLAYORDER=
